<mxfile host="Electron" agent="Mozilla/5.0 (Windows NT 10.0; Win64; x64) AppleWebKit/537.36 (KHTML, like Gecko) draw.io/24.7.8 Chrome/128.0.6613.36 Electron/32.0.1 Safari/537.36" version="24.7.8">
  <diagram name="Сторінка-1" id="NfRqUnZA0CQW1T-y2Od2">
    <mxGraphModel dx="1107" dy="758" grid="1" gridSize="10" guides="1" tooltips="1" connect="1" arrows="1" fold="1" page="1" pageScale="1" pageWidth="827" pageHeight="1169" math="0" shadow="0">
      <root>
        <mxCell id="0" />
        <mxCell id="1" parent="0" />
        <mxCell id="uCGg5uqqXrZqS1oMvgnr-20" value="" style="edgeStyle=orthogonalEdgeStyle;rounded=0;orthogonalLoop=1;jettySize=auto;html=1;" edge="1" parent="1" source="uCGg5uqqXrZqS1oMvgnr-1" target="uCGg5uqqXrZqS1oMvgnr-19">
          <mxGeometry relative="1" as="geometry" />
        </mxCell>
        <mxCell id="uCGg5uqqXrZqS1oMvgnr-1" value="&lt;font style=&quot;font-size: 22px;&quot;&gt;start&lt;/font&gt;" style="strokeWidth=2;html=1;shape=mxgraph.flowchart.start_1;whiteSpace=wrap;" vertex="1" parent="1">
          <mxGeometry x="275" y="35" width="210" height="30" as="geometry" />
        </mxCell>
        <mxCell id="uCGg5uqqXrZqS1oMvgnr-30" value="" style="edgeStyle=orthogonalEdgeStyle;rounded=0;orthogonalLoop=1;jettySize=auto;html=1;" edge="1" parent="1" source="uCGg5uqqXrZqS1oMvgnr-19" target="uCGg5uqqXrZqS1oMvgnr-22">
          <mxGeometry relative="1" as="geometry" />
        </mxCell>
        <mxCell id="uCGg5uqqXrZqS1oMvgnr-19" value="a=100&lt;br&gt;b=0.001(double)" style="whiteSpace=wrap;html=1;strokeWidth=2;" vertex="1" parent="1">
          <mxGeometry x="320" y="115" width="120" height="60" as="geometry" />
        </mxCell>
        <mxCell id="uCGg5uqqXrZqS1oMvgnr-21" value="" style="edgeStyle=orthogonalEdgeStyle;rounded=0;orthogonalLoop=1;jettySize=auto;html=1;" edge="1" parent="1" source="uCGg5uqqXrZqS1oMvgnr-22" target="uCGg5uqqXrZqS1oMvgnr-24">
          <mxGeometry relative="1" as="geometry" />
        </mxCell>
        <mxCell id="uCGg5uqqXrZqS1oMvgnr-22" value="s[0]=(a+b)^4" style="whiteSpace=wrap;html=1;strokeWidth=2;" vertex="1" parent="1">
          <mxGeometry x="322" y="244" width="120" height="60" as="geometry" />
        </mxCell>
        <mxCell id="uCGg5uqqXrZqS1oMvgnr-23" value="" style="edgeStyle=orthogonalEdgeStyle;rounded=0;orthogonalLoop=1;jettySize=auto;html=1;" edge="1" parent="1" source="uCGg5uqqXrZqS1oMvgnr-24" target="uCGg5uqqXrZqS1oMvgnr-26">
          <mxGeometry relative="1" as="geometry" />
        </mxCell>
        <mxCell id="uCGg5uqqXrZqS1oMvgnr-24" value="s[1]=a^4+4a^3*b+6a^2b^2" style="whiteSpace=wrap;html=1;strokeWidth=2;" vertex="1" parent="1">
          <mxGeometry x="297" y="359" width="170" height="60" as="geometry" />
        </mxCell>
        <mxCell id="uCGg5uqqXrZqS1oMvgnr-25" value="" style="edgeStyle=orthogonalEdgeStyle;rounded=0;orthogonalLoop=1;jettySize=auto;html=1;" edge="1" parent="1" source="uCGg5uqqXrZqS1oMvgnr-26" target="uCGg5uqqXrZqS1oMvgnr-28">
          <mxGeometry relative="1" as="geometry" />
        </mxCell>
        <mxCell id="uCGg5uqqXrZqS1oMvgnr-26" value="s[2]=4*a*b^3+b^4" style="whiteSpace=wrap;html=1;strokeWidth=2;" vertex="1" parent="1">
          <mxGeometry x="297" y="499" width="170" height="60" as="geometry" />
        </mxCell>
        <mxCell id="uCGg5uqqXrZqS1oMvgnr-27" value="" style="edgeStyle=orthogonalEdgeStyle;rounded=0;orthogonalLoop=1;jettySize=auto;html=1;" edge="1" parent="1" source="uCGg5uqqXrZqS1oMvgnr-28" target="uCGg5uqqXrZqS1oMvgnr-29">
          <mxGeometry relative="1" as="geometry" />
        </mxCell>
        <mxCell id="uCGg5uqqXrZqS1oMvgnr-28" value="s[3]=(s[0]+s[1])/s[2]" style="whiteSpace=wrap;html=1;strokeWidth=2;" vertex="1" parent="1">
          <mxGeometry x="297" y="639" width="170" height="60" as="geometry" />
        </mxCell>
        <mxCell id="uCGg5uqqXrZqS1oMvgnr-32" value="" style="edgeStyle=orthogonalEdgeStyle;rounded=0;orthogonalLoop=1;jettySize=auto;html=1;" edge="1" parent="1" source="uCGg5uqqXrZqS1oMvgnr-29" target="uCGg5uqqXrZqS1oMvgnr-31">
          <mxGeometry relative="1" as="geometry" />
        </mxCell>
        <mxCell id="uCGg5uqqXrZqS1oMvgnr-29" value="s[3]" style="shape=parallelogram;perimeter=parallelogramPerimeter;whiteSpace=wrap;html=1;fixedSize=1;strokeWidth=2;" vertex="1" parent="1">
          <mxGeometry x="322" y="779" width="120" height="60" as="geometry" />
        </mxCell>
        <mxCell id="uCGg5uqqXrZqS1oMvgnr-34" value="" style="edgeStyle=orthogonalEdgeStyle;rounded=0;orthogonalLoop=1;jettySize=auto;html=1;" edge="1" parent="1" source="uCGg5uqqXrZqS1oMvgnr-31" target="uCGg5uqqXrZqS1oMvgnr-33">
          <mxGeometry relative="1" as="geometry" />
        </mxCell>
        <mxCell id="uCGg5uqqXrZqS1oMvgnr-31" value="a1=100&lt;div&gt;b1=0.001(float)&lt;/div&gt;" style="whiteSpace=wrap;html=1;strokeWidth=2;" vertex="1" parent="1">
          <mxGeometry x="322" y="919" width="120" height="60" as="geometry" />
        </mxCell>
        <mxCell id="uCGg5uqqXrZqS1oMvgnr-36" value="" style="edgeStyle=orthogonalEdgeStyle;rounded=0;orthogonalLoop=1;jettySize=auto;html=1;" edge="1" parent="1" source="uCGg5uqqXrZqS1oMvgnr-33" target="uCGg5uqqXrZqS1oMvgnr-35">
          <mxGeometry relative="1" as="geometry" />
        </mxCell>
        <mxCell id="uCGg5uqqXrZqS1oMvgnr-33" value="s1[0]=(a1+b1)^4" style="whiteSpace=wrap;html=1;strokeWidth=2;" vertex="1" parent="1">
          <mxGeometry x="522" y="919" width="120" height="60" as="geometry" />
        </mxCell>
        <mxCell id="uCGg5uqqXrZqS1oMvgnr-40" value="" style="edgeStyle=orthogonalEdgeStyle;rounded=0;orthogonalLoop=1;jettySize=auto;html=1;" edge="1" parent="1" source="uCGg5uqqXrZqS1oMvgnr-35" target="uCGg5uqqXrZqS1oMvgnr-39">
          <mxGeometry relative="1" as="geometry" />
        </mxCell>
        <mxCell id="uCGg5uqqXrZqS1oMvgnr-35" value="s1[1]=(a1)^4+4(a1)^3*b1+6*&amp;nbsp;&lt;div&gt;*(a1)^2*(b1)^2&lt;/div&gt;" style="whiteSpace=wrap;html=1;strokeWidth=2;" vertex="1" parent="1">
          <mxGeometry x="491" y="770" width="182" height="60" as="geometry" />
        </mxCell>
        <mxCell id="uCGg5uqqXrZqS1oMvgnr-42" value="" style="edgeStyle=orthogonalEdgeStyle;rounded=0;orthogonalLoop=1;jettySize=auto;html=1;" edge="1" parent="1" source="uCGg5uqqXrZqS1oMvgnr-39" target="uCGg5uqqXrZqS1oMvgnr-41">
          <mxGeometry relative="1" as="geometry" />
        </mxCell>
        <mxCell id="uCGg5uqqXrZqS1oMvgnr-39" value="s1[2]=4*a1*(b1)^3+(b1)^4" style="whiteSpace=wrap;html=1;strokeWidth=2;" vertex="1" parent="1">
          <mxGeometry x="491" y="630" width="182" height="60" as="geometry" />
        </mxCell>
        <mxCell id="uCGg5uqqXrZqS1oMvgnr-44" value="" style="edgeStyle=orthogonalEdgeStyle;rounded=0;orthogonalLoop=1;jettySize=auto;html=1;" edge="1" parent="1" source="uCGg5uqqXrZqS1oMvgnr-41" target="uCGg5uqqXrZqS1oMvgnr-43">
          <mxGeometry relative="1" as="geometry" />
        </mxCell>
        <mxCell id="uCGg5uqqXrZqS1oMvgnr-41" value="s1[3]=(s[0]+s[1])/s[2]" style="whiteSpace=wrap;html=1;strokeWidth=2;" vertex="1" parent="1">
          <mxGeometry x="491" y="490" width="182" height="60" as="geometry" />
        </mxCell>
        <mxCell id="uCGg5uqqXrZqS1oMvgnr-46" value="" style="edgeStyle=orthogonalEdgeStyle;rounded=0;orthogonalLoop=1;jettySize=auto;html=1;" edge="1" parent="1" source="uCGg5uqqXrZqS1oMvgnr-43" target="uCGg5uqqXrZqS1oMvgnr-45">
          <mxGeometry relative="1" as="geometry" />
        </mxCell>
        <mxCell id="uCGg5uqqXrZqS1oMvgnr-43" value="&quot;float=&quot;, s1[3]" style="shape=parallelogram;perimeter=parallelogramPerimeter;whiteSpace=wrap;html=1;fixedSize=1;strokeWidth=2;" vertex="1" parent="1">
          <mxGeometry x="522" y="350" width="120" height="60" as="geometry" />
        </mxCell>
        <mxCell id="uCGg5uqqXrZqS1oMvgnr-45" value="End" style="ellipse;whiteSpace=wrap;html=1;strokeWidth=2;" vertex="1" parent="1">
          <mxGeometry x="521" y="259" width="121" height="30" as="geometry" />
        </mxCell>
      </root>
    </mxGraphModel>
  </diagram>
</mxfile>
